<svg xmlns="http://www.w3.org/2000/svg" xmlns:xlink="http://www.w3.org/1999/xlink" id="Capa_1" x="0px" y="0px" viewBox="0 0 600 200" style="enable-background:new 0 0 600 200;" xml:space="preserve"><style type="text/css">	.st0{clip-path:url(#SVGID_2_);}	.st1{fill:url(#SVGID_3_);}	.st2{fill:#FFFFFF;}	.st3{fill:#D71F27;}	.st4{fill:#2F3440;}</style><g id="Capa_2_1_">	<g>		<defs>			<rect id="SVGID_1_" width="600" height="200"></rect>		</defs>		<clipPath id="SVGID_2_">			<use xlink:href="#SVGID_1_" style="overflow:visible;"></use>		</clipPath>		<g class="st0">							<radialGradient id="SVGID_3_" cx="-106.8511" cy="227.5486" r="275.75" fx="19.3861" fy="210.1522" gradientTransform="matrix(1.41 0 0 -0.42 470.27 171.88)" gradientUnits="userSpaceOnUse">				<stop offset="0" style="stop-color:#D71F27"></stop>				<stop offset="0.1" style="stop-color:#D8272F;stop-opacity:0.96"></stop>				<stop offset="0.25" style="stop-color:#DC3D44;stop-opacity:0.87"></stop>				<stop offset="0.43" style="stop-color:#E36167;stop-opacity:0.7"></stop>				<stop offset="0.63" style="stop-color:#EC9497;stop-opacity:0.48"></stop>				<stop offset="0.86" style="stop-color:#F7D3D5;stop-opacity:0.2"></stop>				<stop offset="1" style="stop-color:#FFFFFF;stop-opacity:0"></stop>			</radialGradient>			<polygon class="st1" points="600,28.1 600,0 593.5,0 542.5,46.2 535.6,49.8 540.3,44.5 577.7,0.3 540.7,0.3 521.8,36.4     518.1,42.1 518.7,35.8 522,2.3 492,2.3 497.3,35.8 497.9,42.1 494.2,36.4 447.3,2.3 410.3,2.3 475.7,44.5 480.4,49.8 473.5,46.2     306.7,2.8 181.3,5.4 25.8,4.6 462.8,60.4 470.3,63.2 461.9,62.7 -98.7,17 -84.6,110.5 461.9,79 470.3,78.6 462.8,81.3     -114.7,135.3 -42.2,222.7 473.5,95.5 480.4,91.9 475.7,97.2 174.4,210 370.8,196.4 494.2,105.3 497.9,99.6 497.3,106 497.9,99.6     518.1,99.6 518.7,106 518.1,99.6 521.8,105.3 579.3,210.7 617.8,201 540.3,97.2 535.6,91.9 542.5,95.5 599,149.5 599,113.5     553.2,81.3 545.7,78.6 554.1,79 599,85.2 599,56.5 554.1,62.7 545.7,63.2 553.2,60.4    "></polygon>			<path class="st2" d="M666.3,307.5c-2.2-1-5.4-2.5-9.5-4.3c-4.9-2.2-9.9-4.1-15-6.1c-1.3-0.5-2.6-1-4-1.5l-11.1-39.1l-15.9-10    l-10.9,3.6l-15.2-46.4l-14.1,3.2l-10.2,15l-7.4,2.6l-8.2-15.5l-4.7-107.6l1.9-5.6h3.5c0.9,0,1.6-0.7,1.6-1.6    c0-0.9-0.7-1.6-1.6-1.6h-1.2V78.6h1.2c0.9,0.1,1.6-0.6,1.7-1.5s-0.6-1.6-1.5-1.7c-0.1,0-0.2,0-0.3,0h-14.5V54.2h0.9    c1,0,1.7-0.8,1.7-1.7c0-0.4-0.2-0.9-0.5-1.2l-11.7-12.3c-4.8-5.1-12.8-5.3-17.9-0.5c-0.1,0.1-0.3,0.2-0.4,0.4l-12,12.4    c-0.7,0.7-0.7,1.8-0.1,2.5c0.3,0.4,0.8,0.6,1.3,0.5h0.9v21.2H479c-0.9,0.1-1.5,0.8-1.5,1.7c0.1,0.8,0.7,1.4,1.5,1.5h1.1v14H479    c-0.9,0-1.6,0.7-1.6,1.6c0,0.9,0.7,1.6,1.6,1.6h3.5l1.9,5.6L479.8,209l-8.1,15.4l-7.4-2.6l-10.2-15l-14.1-3.2l-15.2,46.4    l-10.9-3.6l-15.9,10l-11.1,39.1c-1.4,0.5-2.7,1-4,1.5c-5,2-10,3.9-15,6.1c-4.1,1.8-7.3,3.3-9.5,4.3l-3.3,1.6c0,0,1.2-0.5,3.5-1.3    s5.6-2,9.8-3.5c5.1-1.8,10.2-3.4,15.3-5c6.6-2.1,13.2-4,19.9-5.7c3.7-1,7.5-1.9,11.5-2.8s8.1-1.8,12.3-2.7    c8.9-1.7,17.8-3.2,26.7-4.6c4.6-0.6,9.4-1.2,14.2-1.7s9.7-0.9,14.5-1.3c9.9-0.7,19.8-1,29.7-1c9.9,0,19.8,0.3,29.7,1    c2.4,0.2,4.9,0.4,7.3,0.6c2.4,0.2,4.8,0.4,7.2,0.7c4.8,0.5,9.5,1.1,14.2,1.7c8.9,1.3,17.8,2.8,26.7,4.6c4.2,0.9,8.3,1.8,12.3,2.7    c4,0.9,7.8,1.9,11.5,2.8s7.2,1.9,10.5,2.9s6.5,1.9,9.4,2.8c5.1,1.6,10.2,3.3,15.2,5c4.2,1.5,7.5,2.7,9.8,3.5s3.5,1.3,3.5,1.3    L666.3,307.5z"></path>			<polygon class="st3" points="538.2,122.1 485.8,138 485.9,136.2 486,131.9 486.6,119.1 537.4,103.8 537.8,114.1 538.1,120.4        "></polygon>			<polygon class="st3" points="540,163 540,163 483.9,179.9 484,178.1 484.5,166.7 484.8,161.1 484.8,161.1 539.2,144.6     539.4,148.9 539.9,161.2    "></polygon>			<polygon class="st3" points="541.8,203.8 482.1,221.8 482.2,220 482.3,218.3 482.9,203 541,185.5 541.7,201.4 541.7,202.1    "></polygon>			<path class="st4" d="M450.7,278.9h123.2l-27.2-27.3l-6.6-150.3l1.9-5.6h3.5c0.9,0,1.6-0.7,1.6-1.6c0-0.9-0.7-1.6-1.6-1.6h-1.1    v-14h1.2c0.9,0.1,1.6-0.6,1.7-1.5s-0.6-1.6-1.5-1.7c-0.1,0-0.2,0-0.3,0h-14.5V54.2h0.9c1,0,1.7-0.8,1.7-1.7    c0-0.4-0.2-0.9-0.5-1.2l-11.7-12.3c-4.8-5.1-12.8-5.3-17.9-0.5c-0.1,0.1-0.2,0.2-0.4,0.4l-12,12.4c-0.7,0.7-0.7,1.8-0.1,2.5    c0.3,0.4,0.8,0.6,1.3,0.5h0.9v21.2H479c-0.9,0.1-1.5,0.8-1.5,1.7c0.1,0.8,0.7,1.4,1.5,1.5h1.1v14H479c-0.9,0-1.6,0.7-1.6,1.6    c0,0.9,0.7,1.6,1.6,1.6h3.5l1.9,5.6l-6.6,150.3L450.7,278.9z M534.7,78.6h6.7v13.9h-6.7V78.6z M537.2,166.4l1.6,36.5l-53.7,16.2    l1.6-37.5L537.2,166.4z M487,177.2l1.6-37.5l46.8-14.1l1.5,36.5L487,177.2z M529.2,78.6h2.3v14h-2.3V78.6z M523.1,55.8h4.9v19.7    h-4.9L523.1,55.8z M526,78.6v13.9h-12.1V78.6H526z M504.7,55.8h15.2v19.7h-15.2L504.7,55.8z M510.7,78.6v14h-12.1V78.6    L510.7,78.6z M496.7,55.8h4.9v19.7h-4.9V55.8z M493.2,78.6h2.3v14h-2.3V78.6z M490.2,104.9h44.4l0.7,16.3l-46.5,14L490.2,104.9z     M483.4,92.6V78.6h6.6v13.9H483.4z M485,223.6l54-16.4l1.6,36.5l-11.3,3.4h-45.4L485,223.6z"></path>			<path class="st4" d="M57.2,95.7H31.9V54.6h7.8V89h17.5V95.7z"></path>			<path class="st4" d="M70.1,95.7h-7.4V54.6h7.4V95.7z"></path>			<path class="st4" d="M110.2,74.7v21H107l-2.3-5.5c-2.4,4.1-6.1,6.2-11.1,6.2c-5.6,0-9.8-2.1-12.5-6.4c-2.8-4.4-4.2-9.5-4.1-14.8    c-0.2-5.4,1.5-10.6,4.6-15c3.1-4.1,7.4-6.2,12.9-6.2c3.7-0.1,7.4,1.1,10.2,3.6c2.6,2.3,4.4,5.5,5,9l-6.4,1.1    c-1.2-5-4.1-7.5-8.6-7.5c-2.8,0-5.5,1.3-7.1,3.5c-1.8,2.4-2.8,6-2.8,10.9c0,10.4,3.2,15.6,9.8,15.6c2.4,0.1,4.7-0.9,6.3-2.6    c1.7-1.9,2.6-4.4,2.5-6.9h-8.4v-6L110.2,74.7z"></path>			<path class="st4" d="M149.1,95.7h-7.4V77.9H126v17.8h-7.4V54.6h7.4v16.9h15.7V54.6h7.4L149.1,95.7z"></path>			<path class="st4" d="M172.5,95.7h-7.9V61h-10.9v-6.4h29.8V61h-10.9V95.7z"></path>			<path class="st4" d="M218.4,95.7H211V77.9h-15.7v17.8h-7.4V54.6h7.4v16.9H211V54.6h7.4V95.7z"></path>			<path class="st4" d="M242.6,96.3c-5.5,0-9.7-2-12.7-6.1c-3-4.1-4.6-9.2-4.6-15.2c0-6,1.6-11,4.9-15c3.1-3.9,7.8-6.2,12.8-6    c4.9-0.2,9.7,2,12.6,6c3.1,4,4.7,9,4.7,15.1c0,6.3-1.6,11.5-4.8,15.3C252.3,94.3,247.5,96.5,242.6,96.3z M242.6,90.3    c2.6,0,5.2-1.2,6.8-3.3c1.9-2.2,2.8-6.2,2.8-12c0-4.7-0.8-8.4-2.3-11.1c-1.4-2.6-4.2-4.2-7.1-4c-6.3,0-9.5,5.1-9.5,15.3    c0,5,0.8,8.7,2.4,11.3C237.1,89,239.8,90.5,242.6,90.3L242.6,90.3z"></path>			<path class="st4" d="M295.3,54.6V81c0.1,2.8-0.3,5.6-1.2,8.2c-1,2.1-2.6,3.9-4.6,5c-2.6,1.5-5.5,2.2-8.4,2.1    c-2.9,0.1-5.7-0.5-8.3-1.8c-2.1-1.1-3.7-2.9-4.6-5c-1-2.5-1.5-5.3-1.4-8V54.6h7.5V81c0,3.6,0.8,6,2.3,7.1    c1.5,1.1,3.4,1.7,5.3,1.7c2,0.1,4-0.5,5.5-1.8c1.4-1.2,2.1-3.6,2.1-7V54.6H295.3z"></path>			<path class="st4" d="M299.4,85.8l7.2-1.5c0.9,4.1,4.2,6.1,9.9,6.1c2.1,0.1,4.3-0.4,6.1-1.6c1.3-0.8,2.1-2.3,2.1-3.9    c0-1.1-0.4-2.2-1-3.1c-0.7-0.9-2-1.7-4.1-2.2l-7.9-2c-2.1-0.5-4.1-1.3-6-2.4c-1.3-1-2.4-2.3-3.1-3.8c-0.8-1.6-1.2-3.4-1.2-5.2    c-0.1-3.4,1.4-6.7,4.1-8.8c3-2.3,6.7-3.5,10.5-3.4c3.3-0.1,6.6,0.7,9.5,2.3c2.6,1.3,4.5,3.7,5.3,6.6l-7,1.8    c-1.1-3.1-3.6-4.6-7.6-4.6c-1.9-0.1-3.7,0.4-5.3,1.4c-1.2,0.9-1.8,2.2-1.8,3.7c0,2.3,1.9,4,5.7,4.9l7,1.8    c4.2,1.1,7.1,2.6,8.5,4.7c1.4,2,2.2,4.4,2.2,6.9c0.1,3.7-1.6,7.3-4.6,9.5c-3,2.3-7,3.5-11.8,3.5c-3.7,0.1-7.4-0.8-10.7-2.6    C302.5,92.1,300.3,89.2,299.4,85.8z"></path>			<path class="st4" d="M365.6,95.7h-26.7V54.6h26.4v6.1h-19v11.1h15.3v6h-15.3v11.5h19.3V95.7z"></path>			<path class="st2" d="M32.2,152v-46.3h28.6v7.7H40.9v12.3h18.4v7.7H40.9V152H32.2z"></path>			<path class="st2" d="M68.4,105.7h28.4v7.7H77.2v11.2h18.1v7.7H77.2v12h19.6v7.7H68.4V105.7z"></path>			<path class="st2" d="M105.8,105.7h28.4v7.7h-19.6v11.2h18.1v7.7h-18.1v12h19.6v7.7h-28.4V105.7z"></path>			<path class="st2" d="M160.5,105.7c11.4,0,15.4,5.8,15.4,12.4v21.4c0,6.6-4,12.4-15.4,12.4h-17.2v-46.3H160.5z M152,144.3h7.6    c5.9,0,7.5-2.4,7.5-6.8v-17.2c0-4.4-1.6-6.8-7.5-6.8H152V144.3z"></path>			<path class="st2" d="M60.2,92.7H34.9V51.6h7.8V86h17.5V92.7z"></path>			<path class="st2" d="M73.1,92.7h-7.4V51.6h7.4V92.7z"></path>			<path class="st2" d="M113.2,71.7v21H110l-2.3-5.5c-2.4,4.1-6.1,6.2-11.1,6.2c-5.6,0-9.8-2.1-12.5-6.4c-2.8-4.4-4.2-9.5-4.1-14.8    c-0.2-5.4,1.5-10.6,4.6-15c3.1-4.1,7.4-6.2,12.9-6.2c3.7-0.1,7.4,1.1,10.2,3.6c2.6,2.3,4.4,5.5,5,9l-6.4,1.1    c-1.2-5-4.1-7.5-8.6-7.5c-2.8,0-5.5,1.3-7.1,3.5c-1.8,2.4-2.8,6-2.8,10.9c0,10.4,3.2,15.6,9.8,15.6c2.4,0.1,4.7-0.9,6.3-2.6    c1.7-1.9,2.6-4.4,2.5-6.9h-8.4v-6L113.2,71.7z"></path>			<path class="st2" d="M152.1,92.7h-7.4V74.9H129v17.8h-7.4V51.6h7.4v16.9h15.7V51.6h7.4L152.1,92.7z"></path>			<path class="st2" d="M175.5,92.7h-7.9V58h-10.9v-6.4h29.8V58h-10.9V92.7z"></path>			<path class="st2" d="M221.4,92.7H214V74.9h-15.7v17.8h-7.4V51.6h7.4v16.9H214V51.6h7.4V92.7z"></path>			<path class="st2" d="M245.6,93.3c-5.5,0-9.7-2-12.7-6.1c-3-4.1-4.6-9.2-4.6-15.2c0-6,1.6-11,4.9-15c3.1-3.9,7.8-6.2,12.8-6    c4.9-0.2,9.7,2,12.7,6c3.1,4,4.6,9,4.6,15.1c0,6.3-1.6,11.5-4.8,15.3C255.3,91.3,250.5,93.5,245.6,93.3z M245.6,87.3    c2.6,0,5.2-1.2,6.8-3.3c1.9-2.2,2.8-6.2,2.8-12c0-4.7-0.8-8.4-2.3-11.1c-1.4-2.6-4.2-4.2-7.1-4c-6.3,0-9.5,5.1-9.5,15.3    c0,5,0.8,8.7,2.4,11.3C240.1,86,242.8,87.5,245.6,87.3L245.6,87.3z"></path>			<path class="st2" d="M298.3,51.6V78c0.1,2.8-0.3,5.6-1.2,8.2c-1,2.1-2.6,3.9-4.6,5c-2.6,1.5-5.5,2.2-8.4,2.1    c-2.9,0.1-5.7-0.5-8.3-1.8c-2.1-1.1-3.7-2.9-4.6-5c-1-2.5-1.5-5.3-1.4-8V51.6h7.5V78c0,3.6,0.8,6,2.3,7.1    c1.5,1.1,3.4,1.7,5.3,1.7c2,0.1,4-0.5,5.5-1.8c1.4-1.2,2.1-3.6,2.1-7V51.6H298.3z"></path>			<path class="st2" d="M302.4,82.8l7.2-1.5c0.9,4.1,4.2,6.1,9.9,6.1c2.1,0.1,4.3-0.4,6.1-1.6c1.3-0.8,2.1-2.3,2.1-3.9    c0-1.1-0.4-2.2-1-3.1c-0.7-0.9-2-1.7-4.1-2.2l-7.9-2c-2.1-0.5-4.1-1.3-6-2.4c-1.3-1-2.4-2.3-3.1-3.8c-0.8-1.6-1.2-3.4-1.2-5.2    c-0.1-3.4,1.4-6.7,4.1-8.8c3-2.3,6.7-3.5,10.5-3.4c3.3-0.1,6.6,0.7,9.5,2.3c2.6,1.3,4.5,3.7,5.3,6.6l-7,1.8    c-1.1-3.1-3.6-4.6-7.6-4.6c-1.9-0.1-3.7,0.4-5.3,1.4c-1.2,0.9-1.8,2.2-1.8,3.7c0,2.3,1.9,4,5.7,4.9l7,1.8    c4.2,1.1,7.1,2.6,8.5,4.7c1.4,2,2.2,4.4,2.2,6.9c0.1,3.7-1.6,7.3-4.6,9.5c-3,2.3-7,3.5-11.8,3.5c-3.7,0.1-7.4-0.8-10.7-2.6    C305.5,89.1,303.3,86.2,302.4,82.8z"></path>			<path class="st2" d="M368.6,92.7h-26.7V51.6h26.4v6.1h-19v11.1h15.3v6h-15.3v11.5h19.3V92.7z"></path>			<path class="st3" d="M35.2,149v-46.3h28.6v7.7H43.9v12.3h18.4v7.7H43.9V149H35.2z"></path>			<path class="st3" d="M71.4,102.7h28.4v7.7H80.2v11.2h18.1v7.7H80.2v12h19.6v7.7H71.4V102.7z"></path>			<path class="st3" d="M108.8,102.7h28.4v7.7h-19.6v11.2h18.1v7.7h-18.1v12h19.6v7.7h-28.4V102.7z"></path>			<path class="st3" d="M163.5,102.7c11.4,0,15.4,5.8,15.4,12.4v21.4c0,6.6-4,12.4-15.4,12.4h-17.2v-46.3H163.5z M155,141.3h7.6    c5.9,0,7.5-2.4,7.5-6.8v-17.2c0-4.4-1.6-6.8-7.5-6.8H155V141.3z"></path>		</g>	</g></g></svg>